# xmcd CD database file generated by freedbAccess_ocx
#
# Track frame offsets:
#       150
#       13552
#       44885
#       71127
#       85687
#       90027
#       112995
#       126992
#       143822
#       160832
#       166802
#       176102
#       196662
#       213802
#       232107
#       244767
#       262745
#       280147
#       297227
#       312045
#
# Disc length: 4396 seconds
#
# Revision: 0
# Processed by: cddbd v1.5.1PL0 Copyright (c) Steve Scherf et al.
# Submitted via: CDnGo 2.00
#
DISCID=0f112a14
DTITLE=Flávio Guimarães and Nuno Mindelis - Sucessos Em Dobro
DYEAR=1900
DGENRE=Blues
TTITLE0=Telephone Blues
TTITLE1=Take Five
TTITLE2=Blues Jam For Charlie
TTITLE3=Honest I Do
TTITLE4=Free Delay
TTITLE5=Hoochie Coochie Man
TTITLE6=Surfing
TTITLE7=Baby Please Don't Go
TTITLE8=Hand Jive
TTITLE9=Blues Pra Marcia
TTITLE10=Hugs
TTITLE11=Back To Memphis
TTITLE12=You Don't Have To Go
TTITLE13=What Can I Do
TTITLE14=Castles Made Of Sand
TTITLE15=Avenue G
TTITLE16=Monkey Joke
TTITLE17=You Got Me Running
TTITLE18=They Call Me The Beast
TTITLE19=Texas Bound
EXTD=
EXTT0=
EXTT1=
EXTT2=
EXTT3=
EXTT4=
EXTT5=
EXTT6=
EXTT7=
EXTT8=
EXTT9=
EXTT10=
EXTT11=
EXTT12=
EXTT13=
EXTT14=
EXTT15=
EXTT16=
EXTT17=
EXTT18=
EXTT19=
PLAYORDER=
